<svg width="40" height="40" viewBox="0 0 40 40" fill="none" xmlns="http://www.w3.org/2000/svg">
<path d="M30 26.6667C33.6819 26.6667 36.6667 23.682 36.6667 20C36.6667 16.3181 33.6819 13.3334 30 13.3334" fill="#040405"/>
<path d="M30 26.6667C33.6819 26.6667 36.6667 23.682 36.6667 20C36.6667 16.3181 33.6819 13.3334 30 13.3334" stroke="#040405" stroke-width="2" stroke-linejoin="round"/>
<path d="M10.0002 13.3334C6.31826 13.3334 3.3335 16.3181 3.3335 20C3.3335 23.682 6.31826 26.6667 10.0002 26.6667" fill="#040405"/>
<path d="M10.0002 13.3334C6.31826 13.3334 3.3335 16.3181 3.3335 20C3.3335 23.682 6.31826 26.6667 10.0002 26.6667" stroke="#040405" stroke-width="2" stroke-linejoin="round"/>
<path d="M10 26.6667V26.25V24.1667V20V13.3334C10 7.81052 14.4772 3.33337 20 3.33337C25.5228 3.33337 30 7.81052 30 13.3334V26.6667C30 32.1895 25.5228 36.6667 20 36.6667" stroke="#040405" stroke-width="2" stroke-linecap="round" stroke-linejoin="round"/>
</svg>
