<svg width="40" height="40" viewBox="0 0 40 40" fill="none" xmlns="http://www.w3.org/2000/svg">
<path d="M28 7C30.7614 7 33 9.23858 33 12V28C33 30.7614 30.7614 33 28 33H12C9.23858 33 7 30.7614 7 28V12C7 9.23858 9.23858 7 12 7H28ZM26.9961 14.8789C26.3769 14.3288 25.4292 14.3848 24.8789 15.0039L18 22.7422L15.1211 19.5039C14.5708 18.8848 13.6231 18.8288 13.0039 19.3789C12.3848 19.9292 12.3288 20.8769 12.8789 21.4961L16.8789 25.9961C17.1636 26.3163 17.5715 26.5 18 26.5C18.4285 26.5 18.8364 26.3163 19.1211 25.9961L27.1211 16.9961C27.6712 16.3769 27.6152 15.4292 26.9961 14.8789Z" fill="#040405"/>
</svg>
