<svg width="22" height="22" viewBox="0 0 22 22" fill="none" xmlns="http://www.w3.org/2000/svg">
<path fill-rule="evenodd" clip-rule="evenodd" d="M1.92475 11.0001C1.92475 5.98813 5.98775 1.92511 10.9997 1.92511C16.0117 1.92511 20.0747 5.98813 20.0747 11.0001C20.0747 16.0121 16.0117 20.0751 10.9997 20.0751C5.98775 20.0751 1.92475 16.0121 1.92475 11.0001ZM8.37475 7.20844C8.05257 6.88625 7.53021 6.88625 7.20802 7.20844C6.88584 7.53062 6.88584 8.05298 7.20802 8.37516L9.83298 11.0001L7.20802 13.6251C6.88584 13.9473 6.88584 14.4696 7.20802 14.7918C7.53021 15.114 8.05257 15.114 8.37475 14.7918L10.9997 12.1669L13.6247 14.7918C13.9468 15.114 14.4692 15.114 14.7914 14.7918C15.1136 14.4696 15.1136 13.9473 14.7914 13.6251L12.1664 11.0001L14.7914 8.37516C15.1136 8.05298 15.1136 7.53062 14.7914 7.20844C14.4692 6.88625 13.9468 6.88625 13.6247 7.20844L10.9997 9.83341L8.37475 7.20844Z" fill="#040405"/>
</svg>
