<svg width="18" height="13" viewBox="0 0 18 13" fill="none" xmlns="http://www.w3.org/2000/svg">
<path fill-rule="evenodd" clip-rule="evenodd" d="M15.2662 2.29297C16.2137 3.08417 17.011 4.04887 17.607 5.13867C17.9644 5.79241 17.9644 6.58357 17.607 7.2373C15.9332 10.2976 12.6779 12.3749 8.93705 12.375C7.81073 12.375 6.72847 12.1857 5.72025 11.8389L7.99955 9.55957C8.29798 9.64235 8.61226 9.6875 8.93705 9.6875C10.87 9.68741 12.437 8.12044 12.437 6.1875C12.437 5.86294 12.3908 5.54921 12.3081 5.25098L15.2662 2.29297ZM8.93705 0C10.7995 6.59871e-05 12.5415 0.515194 14.0279 1.41016L11.563 3.875C10.9217 3.14735 9.98322 2.68755 8.93705 2.6875C7.00416 2.6875 5.43723 4.25465 5.43705 6.1875C5.43705 7.23376 5.89684 8.17211 6.62455 8.81348L4.24662 11.1914C2.56806 10.2845 1.18212 8.90762 0.268104 7.23633C-0.0893188 6.58256 -0.089417 5.7924 0.268104 5.13867C1.94188 2.0784 5.19619 6.19809e-05 8.93705 0ZM8.93705 4.1875C9.39229 4.18754 9.81088 4.34147 10.147 4.59766L8.93705 6.1875L7.52689 7.60547C7.16271 7.24324 6.93705 6.74173 6.93705 6.1875C6.93723 5.08308 7.83259 4.1875 8.93705 4.1875Z" fill="#040405"/>
</svg>
