<svg width="18" height="13" viewBox="0 0 18 13" fill="none" xmlns="http://www.w3.org/2000/svg">
<path fill-rule="evenodd" clip-rule="evenodd" d="M8.93792 0C12.6788 0.000215823 15.9332 2.0783 17.6069 5.13867C17.9643 5.79237 17.9643 6.58262 17.6069 7.23633C15.9332 10.2967 12.6788 12.3748 8.93792 12.375C5.19688 12.375 1.94176 10.2968 0.267997 7.23633C-0.0893476 6.58268 -0.0893173 5.79233 0.267997 5.13867C1.94178 2.07829 5.19693 0 8.93792 0ZM8.93694 2.6875C7.00414 2.68773 5.43694 4.25464 5.43694 6.1875C5.43694 8.12036 7.00414 9.68727 8.93694 9.6875C10.8699 9.6875 12.4369 8.1205 12.4369 6.1875C12.4369 4.2545 10.8699 2.6875 8.93694 2.6875ZM8.93694 4.1875C9.5299 4.1875 10.0619 4.44653 10.4282 4.85645C9.83461 5.00874 9.39593 5.54645 9.39593 6.1875C9.39593 6.82846 9.83473 7.3652 10.4282 7.51758C10.0619 7.92781 9.53016 8.1875 8.93694 8.1875C7.83257 8.18727 6.93694 7.29193 6.93694 6.1875C6.93694 5.08307 7.83257 4.18773 8.93694 4.1875Z" fill="#040405"/>
</svg>
