<svg width="40" height="40" viewBox="0 0 40 40" fill="none" xmlns="http://www.w3.org/2000/svg">
<g clip-path="url(#clip0_1_2574)">
<path d="M11.6668 18.3334C10.6819 18.3334 9.70665 18.1394 8.7967 17.7625C7.88676 17.3856 7.05997 16.8331 6.36353 16.1367C5.66709 15.4402 5.11464 14.6134 4.73773 13.7035C4.36082 12.7936 4.16683 11.8183 4.16683 10.8334C4.16683 9.84846 4.36082 8.87319 4.73773 7.96325C5.11464 7.05331 5.66709 6.22651 6.36353 5.53007C7.05997 4.83363 7.88676 4.28119 8.7967 3.90428C9.70665 3.52737 10.6819 3.33337 11.6668 3.33337C13.656 3.33337 15.5636 4.12355 16.9701 5.53007C18.3767 6.9366 19.1668 8.84425 19.1668 10.8334C19.1668 12.8225 18.3767 14.7302 16.9701 16.1367C15.5636 17.5432 13.656 18.3334 11.6668 18.3334ZM29.1668 25C27.3987 25 25.703 24.2977 24.4528 23.0474C23.2025 21.7972 22.5002 20.1015 22.5002 18.3334C22.5002 16.5653 23.2025 14.8696 24.4528 13.6193C25.703 12.3691 27.3987 11.6667 29.1668 11.6667C30.9349 11.6667 32.6306 12.3691 33.8809 13.6193C35.1311 14.8696 35.8335 16.5653 35.8335 18.3334C35.8335 20.1015 35.1311 21.7972 33.8809 23.0474C32.6306 24.2977 30.9349 25 29.1668 25ZM29.1668 26.6667C31.156 26.6667 33.0636 27.4569 34.4701 28.8634C35.8767 30.2699 36.6668 32.1776 36.6668 34.1667V35H21.6668V34.1667C21.6668 32.1776 22.457 30.2699 23.8635 28.8634C25.2701 27.4569 27.1777 26.6667 29.1668 26.6667ZM11.6668 20C12.7612 20 13.8448 20.2156 14.8559 20.6344C15.8669 21.0532 16.7856 21.667 17.5594 22.4408C18.3332 23.2146 18.947 24.1333 19.3658 25.1443C19.7846 26.1554 20.0002 27.239 20.0002 28.3334V35H3.3335V28.3334C3.3335 26.1232 4.21147 24.0036 5.77427 22.4408C7.33708 20.878 9.45669 20 11.6668 20Z" fill="#040405"/>
</g>
<defs>
<clipPath id="clip0_1_2574">
<rect width="40" height="40" fill="white"/>
</clipPath>
</defs>
</svg>
