<svg width="40" height="40" viewBox="0 0 40 40" fill="none" xmlns="http://www.w3.org/2000/svg">
<path d="M18.5263 24.1603L16.7942 25.1603L14.7942 21.6962L16.5263 20.6962L18.5263 24.1603ZM23.9904 25.6244C25.9035 24.5198 26.559 22.0734 25.4545 20.1603L23.4545 16.6962C22.3499 14.783 19.9035 14.1275 17.9904 15.2321C16.0772 16.3366 15.4217 18.783 16.5263 20.6962L14.7942 21.6962L14.6467 21.425C13.2473 18.6902 14.1477 15.3297 16.727 13.6611L16.9904 13.5C19.7705 11.8949 23.3012 12.7676 25.0255 15.4328L25.1865 15.6962L27.1865 19.1603C28.8434 22.03 27.8601 25.6996 24.9904 27.3564L24.7192 27.5039C21.9845 28.9034 18.6239 28.0029 16.9553 25.4236L16.7942 25.1603L18.5263 24.1603C19.6308 26.0734 22.0772 26.7289 23.9904 25.6244Z" fill="#3863F6"/>
<path d="M6.75 25.7631C5.23122 23.1325 6.13253 19.7688 8.76314 18.25L13.5263 15.5L16.2763 20.2631C17.7951 22.8937 16.8937 26.2575 14.2631 27.7763C11.6325 29.2951 8.26878 28.3937 6.75 25.7631Z" fill="#3863F6"/>
<path d="M32.7305 10.7631C31.2117 8.13253 27.8479 7.23122 25.2173 8.75L20.4542 11.5L23.2042 16.2631C24.723 18.8937 28.0867 19.7951 30.7173 18.2763C33.3479 16.7575 34.2493 13.3937 32.7305 10.7631Z" fill="#3863F6"/>
<path d="M13.6601 17.7321L12.6601 16C11.2793 13.6086 12.0987 10.5506 14.4902 9.16992C16.8816 7.78921 19.9396 8.60859 21.3203 11L22.3203 12.7321L13.6601 17.7321Z" fill="#3863F6"/>
<path d="M13.5263 15.5001C12.4217 13.5869 13.0772 11.1406 14.9904 10.036C16.9035 8.93144 19.3499 9.58694 20.4545 11.5001L20.9545 12.3661L14.0263 16.3661L13.5263 15.5001ZM13.2942 19.0982L23.6865 13.0982L22.1865 10.5001C20.5297 7.63035 16.8601 6.6471 13.9904 8.30396C11.1206 9.96081 10.1374 13.6304 11.7942 16.5001L13.2942 19.0982Z" fill="#3863F6"/>
<path d="M22.9544 15.8303C23.4327 15.5542 24.0443 15.7181 24.3204 16.1963C24.5966 16.6746 24.4327 17.2862 23.9544 17.5624L17.0262 21.5624C16.5479 21.8385 15.9363 21.6746 15.6602 21.1963C15.384 20.7181 15.5479 20.1065 16.0262 19.8303L22.9544 15.8303Z" fill="#3863F6"/>
<path d="M24.9544 19.2942C25.4327 19.018 26.0443 19.1819 26.3204 19.6602C26.5966 20.1385 26.4327 20.7501 25.9544 21.0262L19.0262 25.0262C18.5479 25.3024 17.9363 25.1385 17.6602 24.6602C17.384 24.1819 17.5479 23.5703 18.0262 23.2942L24.9544 19.2942Z" fill="#3863F6"/>
<path d="M25.6506 8.50024C26.1289 8.2241 26.7405 8.38798 27.0166 8.86627C27.2928 9.34456 27.1289 9.95615 26.6506 10.2323L10.1961 19.7323C9.71781 20.0084 9.10622 19.8446 8.83008 19.3663C8.55394 18.888 8.71781 18.2764 9.1961 18.0002L25.6506 8.50024Z" fill="#3863F6"/>
<circle cx="26.9904" cy="30.8209" r="2" transform="rotate(-30 26.9904 30.8209)" fill="#3863F6"/>
</svg>
